<?xml version="1.0" encoding="UTF-8" standalone="no"?>
<!DOCTYPE svg PUBLIC "-//W3C//DTD SVG 1.1//EN"
 "http://www.w3.org/Graphics/SVG/1.1/DTD/svg11.dtd">
<!-- Generated by graphviz version 6.0.1 (0)
 -->
<!-- Title: egraph Pages: 1 -->
<svg width="271pt" height="220pt"
 viewBox="0.00 0.00 271.00 220.00" xmlns="http://www.w3.org/2000/svg" xmlns:xlink="http://www.w3.org/1999/xlink">
<g id="graph0" class="graph" transform="scale(1 1) rotate(0) translate(4 216)">
<title>egraph</title>
<polygon fill="white" stroke="none" points="-4,4 -4,-216 267,-216 267,4 -4,4"/>
<g id="clust1" class="cluster">
<title>cluster_0</title>
<polygon fill="none" stroke="black" stroke-dasharray="1,5" points="41,-152 41,-204 255,-204 255,-152 41,-152"/>
</g>
<g id="clust2" class="cluster">
<title>cluster_2</title>
<polygon fill="none" stroke="black" stroke-dasharray="1,5" points="158,-80 158,-132 228,-132 228,-80 158,-80"/>
</g>
<g id="clust3" class="cluster">
<title>cluster_4</title>
<polygon fill="none" stroke="black" stroke-dasharray="1,5" points="8,-80 8,-132 150,-132 150,-80 8,-80"/>
</g>
<g id="clust4" class="cluster">
<title>cluster_1</title>
<polygon fill="none" stroke="black" stroke-dasharray="1,5" points="98,-8 98,-60 168,-60 168,-8 98,-8"/>
</g>
<!-- 0.0 -->
<g id="node1" class="node">
<title>0.0</title>
<ellipse fill="none" stroke="black" cx="148" cy="-178" rx="27" ry="18"/>
<text text-anchor="middle" x="148" y="-174.3" font-family="Times,serif" font-size="14.00">*</text>
</g>
<!-- 0.0&#45;&gt;0.0 -->
<g id="edge1" class="edge">
<title>0.0:sw&#45;&gt;0.0:n</title>
<path fill="none" stroke="black" d="M133,-163C118,-145 103,-145 103,-179.5 103,-208.88 124.75,-213.24 140.48,-202.77"/>
<polygon fill="black" stroke="black" points="142.91,-205.29 148,-196 138.23,-200.09 142.91,-205.29"/>
</g>
<!-- 4.0 -->
<g id="node5" class="node">
<title>4.0</title>
<ellipse fill="none" stroke="black" cx="115" cy="-106" rx="27" ry="18"/>
<text text-anchor="middle" x="115" y="-102.3" font-family="Times,serif" font-size="14.00">1</text>
</g>
<!-- 0.0&#45;&gt;4.0 -->
<g id="edge2" class="edge">
<title>0.0:se&#45;&gt;4.0</title>
<path fill="none" stroke="black" d="M163,-162C167.35,-157.65 161.5,-148.69 152.56,-139.25"/>
<polygon fill="black" stroke="black" points="154.81,-136.55 145.24,-132 149.88,-141.52 154.81,-136.55"/>
</g>
<!-- 0.1 -->
<g id="node2" class="node">
<title>0.1</title>
<ellipse fill="none" stroke="black" cx="220" cy="-178" rx="27" ry="18"/>
<text text-anchor="middle" x="220" y="-174.3" font-family="Times,serif" font-size="14.00">/</text>
</g>
<!-- 2.0 -->
<g id="node4" class="node">
<title>2.0</title>
<ellipse fill="none" stroke="black" cx="193" cy="-106" rx="27" ry="18"/>
<text text-anchor="middle" x="193" y="-102.3" font-family="Times,serif" font-size="14.00">*</text>
</g>
<!-- 0.1&#45;&gt;2.0 -->
<g id="edge3" class="edge">
<title>0.1:sw&#45;&gt;2.0</title>
<path fill="none" stroke="black" d="M205,-162C197.72,-154.72 194.4,-144.11 193.01,-134.15"/>
<polygon fill="black" stroke="black" points="199.05,-140.07 192.18,-132 192.52,-142.59 199.05,-140.07"/>
</g>
<!-- 1.0 -->
<g id="node7" class="node">
<title>1.0</title>
<ellipse fill="none" stroke="black" cx="133" cy="-34" rx="27" ry="18"/>
<text text-anchor="middle" x="133" y="-30.3" font-family="Times,serif" font-size="14.00">2</text>
</g>
<!-- 0.1&#45;&gt;1.0 -->
<g id="edge4" class="edge">
<title>0.1:se&#45;&gt;1.0</title>
<path fill="none" stroke="black" d="M235,-162C260.79,-136.21 252.3,-110.3 232,-80 217.78,-58.78 190.95,-47.42 168.8,-41.43"/>
<polygon fill="black" stroke="black" points="178.52,-42.32 168,-41.03 175.42,-48.6 178.52,-42.32"/>
</g>
<!-- 0.2 -->
<g id="node3" class="node">
<title>0.2</title>
<ellipse fill="none" stroke="black" cx="76" cy="-178" rx="27" ry="18"/>
<text text-anchor="middle" x="76" y="-174.3" font-family="Times,serif" font-size="14.00">x</text>
</g>
<!-- 2.0&#45;&gt;0.0 -->
<g id="edge5" class="edge">
<title>2.0:sw&#45;&gt;0.0</title>
<path fill="none" stroke="black" d="M178,-90C174.22,-86.22 170.01,-87.46 166,-91 161.52,-94.96 155.78,-126.33 152,-150.05"/>
<polygon fill="black" stroke="black" points="150.74,-141.43 151.46,-152 157.49,-143.29 150.74,-141.43"/>
</g>
<!-- 2.0&#45;&gt;1.0 -->
<g id="edge6" class="edge">
<title>2.0:se&#45;&gt;1.0</title>
<path fill="none" stroke="black" d="M208,-90C223.45,-74.55 201.62,-60.07 177.6,-49.85"/>
<polygon fill="black" stroke="black" points="178.58,-46.47 168,-46.01 175.98,-52.97 178.58,-46.47"/>
</g>
<!-- 4.1 -->
<g id="node6" class="node">
<title>4.1</title>
<ellipse fill="none" stroke="black" cx="43" cy="-106" rx="27" ry="18"/>
<text text-anchor="middle" x="43" y="-102.3" font-family="Times,serif" font-size="14.00">/</text>
</g>
<!-- 4.1&#45;&gt;1.0 -->
<g id="edge7" class="edge">
<title>4.1:sw&#45;&gt;1.0</title>
<path fill="none" stroke="black" d="M28,-90C3.24,-65.24 57.8,-49.09 97.17,-41.05"/>
<polygon fill="black" stroke="black" points="93.86,-49.88 98,-40.13 88.68,-45.17 93.86,-49.88"/>
</g>
<!-- 4.1&#45;&gt;1.0 -->
<g id="edge8" class="edge">
<title>4.1:se&#45;&gt;1.0</title>
<path fill="none" stroke="black" d="M58,-90C67.55,-80.45 78.87,-71.27 89.78,-63.23"/>
<polygon fill="black" stroke="black" points="91.92,-66 98,-57.33 87.84,-60.32 91.92,-66"/>
</g>
</g>
</svg>
