<?xml version="1.0" encoding="UTF-8" standalone="no"?>
<!DOCTYPE svg PUBLIC "-//W3C//DTD SVG 1.1//EN"
 "http://www.w3.org/Graphics/SVG/1.1/DTD/svg11.dtd">
<!-- Generated by graphviz version 6.0.1 (0)
 -->
<!-- Title: egraph Pages: 1 -->
<svg width="353pt" height="292pt"
 viewBox="0.00 0.00 352.77 292.00" xmlns="http://www.w3.org/2000/svg" xmlns:xlink="http://www.w3.org/1999/xlink">
<g id="graph0" class="graph" transform="scale(1 1) rotate(0) translate(4 288)">
<title>egraph</title>
<polygon fill="white" stroke="none" points="-4,4 -4,-288 348.77,-288 348.77,4 -4,4"/>
<g id="clust1" class="cluster">
<title>cluster_0</title>
<polygon fill="none" stroke="black" stroke-dasharray="1,5" points="12.77,-80 12.77,-132 154.77,-132 154.77,-80 12.77,-80"/>
</g>
<g id="clust2" class="cluster">
<title>cluster_2</title>
<polygon fill="none" stroke="black" stroke-dasharray="1,5" points="99.77,-152 99.77,-204 241.77,-204 241.77,-152 99.77,-152"/>
</g>
<g id="clust3" class="cluster">
<title>cluster_4</title>
<polygon fill="none" stroke="black" stroke-dasharray="1,5" points="10.77,-8 10.77,-60 170.77,-60 170.77,-8 10.77,-8"/>
</g>
<g id="clust4" class="cluster">
<title>cluster_1</title>
<polygon fill="none" stroke="black" stroke-dasharray="1,5" points="194.77,-80 194.77,-132 336.77,-132 336.77,-80 194.77,-80"/>
</g>
<g id="clust5" class="cluster">
<title>cluster_3</title>
<polygon fill="none" stroke="black" stroke-dasharray="1,5" points="42.77,-224 42.77,-276 184.77,-276 184.77,-224 42.77,-224"/>
</g>
<!-- 0.0 -->
<g id="node1" class="node">
<title>0.0</title>
<ellipse fill="none" stroke="black" cx="119.77" cy="-106" rx="27" ry="18"/>
<text text-anchor="middle" x="119.77" y="-102.3" font-family="Times,serif" font-size="14.00">*</text>
</g>
<!-- 0.0&#45;&gt;0.0 -->
<g id="edge1" class="edge">
<title>0.0:sw&#45;&gt;0.0:n</title>
<path fill="none" stroke="black" d="M104.77,-91C89.77,-73 74.77,-73 74.77,-107.5 74.77,-136.88 96.53,-141.24 112.25,-130.77"/>
<polygon fill="black" stroke="black" points="114.68,-133.29 119.77,-124 110,-128.09 114.68,-133.29"/>
</g>
<!-- 4.0 -->
<g id="node5" class="node">
<title>4.0</title>
<ellipse fill="none" stroke="black" cx="135.77" cy="-34" rx="27" ry="18"/>
<text text-anchor="middle" x="135.77" y="-30.3" font-family="Times,serif" font-size="14.00">1</text>
</g>
<!-- 0.0&#45;&gt;4.0 -->
<g id="edge2" class="edge">
<title>0.0:se&#45;&gt;4.0</title>
<path fill="none" stroke="black" d="M134.77,-90C141.99,-82.78 143.36,-72.01 142.5,-61.9"/>
<polygon fill="black" stroke="black" points="148.08,-68.64 141.95,-60 141.36,-70.58 148.08,-68.64"/>
</g>
<!-- 0.1 -->
<g id="node2" class="node">
<title>0.1</title>
<ellipse fill="none" stroke="black" cx="47.77" cy="-106" rx="27" ry="18"/>
<text text-anchor="middle" x="47.77" y="-102.3" font-family="Times,serif" font-size="14.00">x</text>
</g>
<!-- 2.0 -->
<g id="node3" class="node">
<title>2.0</title>
<ellipse fill="none" stroke="black" cx="134.77" cy="-178" rx="27" ry="18"/>
<text text-anchor="middle" x="134.77" y="-174.3" font-family="Times,serif" font-size="14.00">*</text>
</g>
<!-- 2.0&#45;&gt;0.0 -->
<g id="edge3" class="edge">
<title>2.0:sw&#45;&gt;0.0</title>
<path fill="none" stroke="black" d="M119.77,-162C112.56,-154.78 111.37,-144.01 112.43,-133.9"/>
<polygon fill="black" stroke="black" points="112.71,-142.58 113.19,-132 106.22,-139.98 112.71,-142.58"/>
</g>
<!-- 1.0 -->
<g id="node7" class="node">
<title>1.0</title>
<ellipse fill="none" stroke="black" cx="301.77" cy="-106" rx="27" ry="18"/>
<text text-anchor="middle" x="301.77" y="-102.3" font-family="Times,serif" font-size="14.00">*</text>
</g>
<!-- 2.0&#45;&gt;1.0 -->
<g id="edge4" class="edge">
<title>2.0:se&#45;&gt;1.0</title>
<path fill="none" stroke="black" d="M149.77,-162C157.08,-154.69 160.98,-155.31 170.77,-152 208.14,-139.37 223.47,-147.4 256.08,-135.82"/>
<polygon fill="black" stroke="black" points="257.75,-138.92 265.77,-132 255.19,-132.41 257.75,-138.92"/>
</g>
<!-- 2.1 -->
<g id="node4" class="node">
<title>2.1</title>
<ellipse fill="none" stroke="black" cx="206.77" cy="-178" rx="27" ry="18"/>
<text text-anchor="middle" x="206.77" y="-174.3" font-family="Times,serif" font-size="14.00">*</text>
</g>
<!-- 2.1&#45;&gt;2.1 -->
<g id="edge5" class="edge">
<title>2.1:sw&#45;&gt;2.1:n</title>
<path fill="none" stroke="black" d="M191.77,-163C176.77,-145 161.77,-145 161.77,-179.5 161.77,-208.88 183.53,-213.24 199.25,-202.77"/>
<polygon fill="black" stroke="black" points="201.68,-205.29 206.77,-196 197,-200.09 201.68,-205.29"/>
</g>
<!-- 2.1&#45;&gt;4.0 -->
<g id="edge6" class="edge">
<title>2.1:se&#45;&gt;4.0</title>
<path fill="none" stroke="black" d="M221.77,-162C235.33,-148.44 202.51,-147.16 190.77,-132 181.25,-119.7 162.02,-84.63 149.01,-60.22"/>
<polygon fill="black" stroke="black" points="158.77,-59.21 148.2,-60 156.95,-65.98 158.77,-59.21"/>
</g>
<!-- 4.1 -->
<g id="node6" class="node">
<title>4.1</title>
<ellipse fill="none" stroke="black" cx="45.77" cy="-34" rx="27" ry="18"/>
<text text-anchor="middle" x="45.77" y="-30.3" font-family="Times,serif" font-size="14.00">*</text>
</g>
<!-- 4.1&#45;&gt;4.1 -->
<g id="edge7" class="edge">
<title>4.1:sw&#45;&gt;4.1:n</title>
<path fill="none" stroke="black" d="M30.77,-19C15.77,-1 0.77,-1 0.77,-35.5 0.77,-64.88 22.53,-69.24 38.25,-58.77"/>
<polygon fill="black" stroke="black" points="40.68,-61.29 45.77,-52 36,-56.09 40.68,-61.29"/>
</g>
<!-- 4.1&#45;&gt;4.1 -->
<g id="edge8" class="edge">
<title>4.1:se&#45;&gt;4.1:n</title>
<path fill="none" stroke="black" d="M60.77,-19C75.77,-1 90.77,-1 90.77,-35.5 90.77,-64.88 69.02,-69.24 53.3,-58.77"/>
<polygon fill="black" stroke="black" points="55.55,-56.09 45.77,-52 50.87,-61.29 55.55,-56.09"/>
</g>
<!-- 1.0&#45;&gt;4.0 -->
<g id="edge10" class="edge">
<title>1.0:se&#45;&gt;4.0</title>
<path fill="none" stroke="black" d="M316.77,-90C361.21,-45.56 238.1,-36.83 173.08,-35.25"/>
<polygon fill="black" stroke="black" points="181.04,-32.43 170.77,-35.05 180.43,-39.41 181.04,-32.43"/>
</g>
<!-- 1.0&#45;&gt;1.0 -->
<g id="edge9" class="edge">
<title>1.0:sw&#45;&gt;1.0:n</title>
<path fill="none" stroke="black" d="M286.77,-91C271.77,-73 256.77,-73 256.77,-107.5 256.77,-136.88 278.53,-141.24 294.25,-130.77"/>
<polygon fill="black" stroke="black" points="296.68,-133.29 301.77,-124 292,-128.09 296.68,-133.29"/>
</g>
<!-- 1.1 -->
<g id="node8" class="node">
<title>1.1</title>
<ellipse fill="none" stroke="black" cx="229.77" cy="-106" rx="27" ry="18"/>
<text text-anchor="middle" x="229.77" y="-102.3" font-family="Times,serif" font-size="14.00">2</text>
</g>
<!-- 3.0 -->
<g id="node9" class="node">
<title>3.0</title>
<ellipse fill="none" stroke="black" cx="77.77" cy="-250" rx="27" ry="18"/>
<text text-anchor="middle" x="77.77" y="-246.3" font-family="Times,serif" font-size="14.00">*</text>
</g>
<!-- 3.0&#45;&gt;4.0 -->
<g id="edge12" class="edge">
<title>3.0:se&#45;&gt;4.0</title>
<path fill="none" stroke="black" d="M92.77,-234C113.54,-213.24 18.69,-159.64 8.77,-132 0.97,-110.25 -5.71,-98.01 8.77,-80 32.49,-50.5 57.18,-72.06 90.23,-63.33"/>
<polygon fill="black" stroke="black" points="91.49,-66.6 99.77,-60 89.18,-59.99 91.49,-66.6"/>
</g>
<!-- 3.0&#45;&gt;3.0 -->
<g id="edge11" class="edge">
<title>3.0:sw&#45;&gt;3.0:n</title>
<path fill="none" stroke="black" d="M62.77,-235C47.77,-217 32.77,-217 32.77,-251.5 32.77,-280.88 54.53,-285.24 70.25,-274.77"/>
<polygon fill="black" stroke="black" points="72.68,-277.29 77.77,-268 68,-272.09 72.68,-277.29"/>
</g>
<!-- 3.1 -->
<g id="node10" class="node">
<title>3.1</title>
<ellipse fill="none" stroke="black" cx="149.77" cy="-250" rx="27" ry="18"/>
<text text-anchor="middle" x="149.77" y="-246.3" font-family="Times,serif" font-size="14.00">/</text>
</g>
<!-- 3.1&#45;&gt;2.0 -->
<g id="edge13" class="edge">
<title>3.1:sw&#45;&gt;2.0</title>
<path fill="none" stroke="black" d="M134.77,-234C127.56,-226.78 126.37,-216.01 127.43,-205.9"/>
<polygon fill="black" stroke="black" points="127.71,-214.58 128.19,-204 121.22,-211.98 127.71,-214.58"/>
</g>
<!-- 3.1&#45;&gt;1.0 -->
<g id="edge14" class="edge">
<title>3.1:se&#45;&gt;1.0</title>
<path fill="none" stroke="black" d="M164.77,-234C191.92,-206.85 216.44,-228.76 245.77,-204 268.1,-185.16 283.5,-155.03 292.43,-133.35"/>
<polygon fill="black" stroke="black" points="291.37,-142.44 293.18,-132 285.26,-139.04 291.37,-142.44"/>
</g>
</g>
</svg>
